<?xml version="1.0" standalone="no"?>
<!DOCTYPE svg PUBLIC "-//W3C//DTD SVG 20010904//EN"
 "http://www.w3.org/TR/2001/REC-SVG-20010904/DTD/svg10.dtd">
<svg version="1.0" xmlns="http://www.w3.org/2000/svg"
 width="3600.000000pt" height="1248.000000pt" viewBox="0 0 3600.000000 1248.000000"
 preserveAspectRatio="xMidYMid meet">

<g transform="translate(0.000000,1248.000000) scale(0.100000,-0.100000)"
fill="#000000" stroke="none">
<path d="M4493 10989 c-153 -10 -374 -42 -523 -75 -63 -14 -116 -27 -118 -28
-1 -2 82 -6 185 -9 492 -17 980 -122 1458 -314 1450 -583 2704 -1858 3310
-3363 115 -286 245 -723 286 -965 7 -38 16 -74 20 -79 15 -17 188 356 282 611
54 145 132 401 157 514 15 67 10 84 -87 319 -519 1248 -1524 2325 -2718 2910
-212 104 -360 165 -592 244 -570 193 -1120 271 -1660 235z"/>
<path d="M3600 10869 c-562 -58 -1091 -273 -1491 -607 -116 -98 -292 -279
-380 -392 -773 -993 -821 -2523 -126 -4026 352 -762 907 -1496 1567 -2075 160
-139 190 -158 70 -44 -558 535 -931 1035 -1244 1665 -282 568 -442 1105 -517
1730 -39 333 -26 788 32 1140 209 1256 1039 2227 2209 2584 l115 35 -75 -1
c-41 0 -113 -5 -160 -9z"/>
<path d="M24395 10629 c-318 -24 -589 -67 -880 -139 -1059 -261 -1878 -839
-2379 -1680 -394 -660 -576 -1372 -576 -2255 0 -890 184 -1604 586 -2275 243
-407 586 -779 964 -1047 478 -339 1096 -574 1765 -672 493 -72 1042 -80 1490
-20 338 45 834 158 1120 256 235 80 493 210 606 305 11 9 29 105 66 348 l51
335 -22 23 -23 23 -164 -123 c-385 -289 -684 -463 -1034 -601 -392 -154 -671
-214 -1046 -224 -776 -20 -1482 188 -2017 596 -629 479 -1042 1261 -1177 2231
-76 548 -70 1242 16 1780 88 553 275 1057 545 1466 230 350 584 679 942 877
600 332 1462 468 2127 336 541 -107 1112 -420 1543 -846 120 -117 125 -121
153 -111 17 6 31 19 34 31 3 12 25 123 51 247 64 319 106 466 165 582 11 22
19 41 17 43 -8 8 -229 98 -348 143 -577 214 -1110 332 -1680 372 -169 11 -735
11 -895 -1z"/>
<path d="M32875 10634 c-413 -43 -690 -117 -1003 -266 -418 -199 -757 -522
-951 -906 -166 -329 -245 -767 -212 -1182 41 -523 177 -834 519 -1191 292
-305 704 -551 1312 -784 388 -149 764 -320 968 -442 208 -124 467 -347 582
-502 133 -180 206 -417 217 -702 33 -852 -480 -1538 -1272 -1698 -235 -48
-532 -46 -781 4 -394 79 -784 303 -1048 602 -93 105 -255 346 -311 461 l-39
82 -68 0 c-78 0 -70 13 -88 -145 -35 -315 -85 -549 -164 -769 -20 -55 -35
-101 -33 -101 1 -1 37 -28 79 -59 253 -185 639 -370 926 -442 406 -103 976
-123 1467 -53 1025 146 1776 735 2083 1634 106 308 155 687 133 1014 -36 511
-173 810 -533 1156 -187 181 -367 302 -688 464 -213 108 -310 150 -596 256
-280 104 -468 184 -684 291 -350 172 -538 300 -742 505 -187 189 -273 347
-331 608 -29 133 -31 491 -4 621 96 450 363 794 760 980 402 188 914 199 1267
27 229 -112 431 -288 567 -495 57 -86 156 -285 197 -394 l24 -63 67 0 68 0 38
170 c64 285 133 497 220 684 27 58 46 108 42 112 -31 28 -188 136 -256 178
-281 170 -564 269 -912 322 -127 19 -198 22 -465 24 -173 2 -333 1 -355 -1z"/>
<path d="M13117 10178 c59 -1599 63 -1808 63 -3613 0 -1805 -4 -1988 -63
-3603 l-12 -314 40 6 c70 11 3294 18 3685 8 206 -5 376 -9 377 -8 1 1 -5 44
-13 96 -21 141 -15 419 12 525 l6 23 -67 -14 c-430 -90 -1338 -144 -2432 -144
l-583 0 -7 28 c-10 37 -10 3223 0 3295 l8 57 237 0 c367 0 1342 -19 1592 -30
277 -13 620 -36 800 -55 74 -8 136 -12 138 -10 2 2 -2 44 -9 92 -18 112 -17
381 0 496 7 48 11 90 8 93 -2 2 -87 -2 -188 -10 -283 -24 -804 -53 -1324 -76
-126 -6 -460 -13 -741 -17 l-511 -6 -6 89 c-13 177 -19 1714 -8 1964 5 135 15
378 21 540 6 162 14 314 16 338 l5 42 292 0 c462 0 940 -24 1697 -85 793 -65
999 -79 1005 -73 4 3 1 42 -6 85 -7 43 -13 157 -13 253 0 96 6 210 13 253 7
43 11 81 8 83 -2 2 -206 -3 -453 -11 -1094 -37 -2056 -37 -3134 0 -239 8 -442
15 -450 15 -13 0 -14 -36 -3 -312z"/>
<path d="M9721 6683 c-96 -499 -232 -898 -466 -1363 l-93 -185 -11 -120 c-44
-490 -212 -984 -465 -1370 -522 -795 -1408 -1227 -2441 -1191 -110 4 -247 13
-305 20 -102 13 -108 13 -207 -13 -57 -14 -103 -29 -103 -32 0 -4 12 -9 28
-11 15 -3 92 -17 172 -31 1189 -214 2296 98 3060 863 748 748 1082 1866 919
3082 -20 150 -64 396 -73 405 -2 3 -9 -22 -15 -54z"/>
<path d="M3389 3587 c19 -24 236 -199 351 -284 163 -120 450 -306 503 -326 9
-3 31 -4 48 0 28 5 19 12 -123 92 -258 147 -443 268 -668 439 -69 53 -119 88
-111 79z"/>
</g>
</svg>
